# xmcd
#
# Track frame offsets:
#	150
#	20810
#	42710
#	67785
#	88695
#	106790
#	125470
#	143025
#	162217
#	184372
#	206220
#	226550
#	247805
#	268815
#	293710
#	310025
#
# Disc length: 4414 seconds
#
# Revision: 1
# Processed by: cddbd v1.5PL3 Copyright (c) Steve Scherf et al.
# Submitted via: audiograbber 1.82.01
#
DISCID=de113c10
DTITLE=Rod Stewart - Greatest Hits
DYEAR=1900
DGENRE=Pop
TTITLE0=Some Guys Have All The Luck
TTITLE1=I Don´t Want To Talk About It
TTITLE2=Passion
TTITLE3=Sailing
TTITLE4=Have I Told You Lately
TTITLE5=You Are Everything
TTITLE6=The First Cut Is The Deepest
TTITLE7=Rhythm Of My Heart
TTITLE8=People Get Ready (With Jeff Beck)
TTITLE9=I Was Only Joking
TTITLE10=You´re In My Heart
TTITLE11=Every Beat Of My Heart
TTITLE12=Downtown Train
TTITLE13=Da YaThink I´m Sexy ?
TTITLE14=Tonight´s The Night
TTITLE15=You´re The Star
EXTD=
EXTT0=
EXTT1=
EXTT2=
EXTT3=
EXTT4=
EXTT5=
EXTT6=
EXTT7=
EXTT8=
EXTT9=
EXTT10=
EXTT11=
EXTT12=
EXTT13=
EXTT14=
EXTT15=
PLAYORDER=
